<svg width="19" height="19" viewBox="0 0 19 19" fill="none" xmlns="http://www.w3.org/2000/svg" id="projectDetails">
<path d="M7.91667 7.125H4.75" stroke="black" stroke-width="0.866667" stroke-linecap="round" stroke-linejoin="round"/>
<path d="M12.2708 8.70833C11.1777 8.70833 10.2916 7.82223 10.2916 6.72917C10.2916 5.6361 11.1777 4.75 12.2708 4.75C13.3638 4.75 14.25 5.6361 14.25 6.72917C14.25 7.82223 13.3638 8.70833 12.2708 8.70833Z" stroke="black" stroke-width="0.866667" stroke-linecap="round" stroke-linejoin="round"/>
<path d="M4.75 4.75H7.125" stroke="black" stroke-width="0.866667" stroke-linecap="round" stroke-linejoin="round"/>
<path d="M14.25 14.25L10.6875 11.875L8.70833 13.4584L4.75 10.2917" stroke="black" stroke-width="0.866667" stroke-linecap="round" stroke-linejoin="round"/>
<path d="M2.375 16.15V2.85C2.375 2.58767 2.58767 2.375 2.85 2.375H16.15C16.4124 2.375 16.625 2.58767 16.625 2.85V16.15C16.625 16.4124 16.4124 16.625 16.15 16.625H2.85C2.58767 16.625 2.375 16.4124 2.375 16.15Z" stroke="black" stroke-width="0.866667"/>
</svg>
