<svg width="32" height="32" viewBox="0 0 32 32" fill="none" xmlns="http://www.w3.org/2000/svg" id="projectDetails2">
<path d="M12.6667 11H6" stroke="currentColor" stroke-width="0.866667" stroke-linecap="round" stroke-linejoin="round"/>
<path d="M21.8333 14.3333C19.5321 14.3333 17.6666 12.4679 17.6666 10.1667C17.6666 7.86548 19.5321 6 21.8333 6C24.1345 6 26 7.86548 26 10.1667C26 12.4679 24.1345 14.3333 21.8333 14.3333Z" stroke="currentColor" stroke-width="0.866667" stroke-linecap="round" stroke-linejoin="round"/>
<path d="M6 6H11" stroke="currentColor" stroke-width="0.866667" stroke-linecap="round" stroke-linejoin="round"/>
<path d="M26 26L18.5 21L14.3333 24.3334L6 17.6667" stroke="currentColor" stroke-width="0.866667" stroke-linecap="round" stroke-linejoin="round"/>
<path d="M1 30V2C1 1.44772 1.44772 1 2 1H30C30.5523 1 31 1.44772 31 2V30C31 30.5523 30.5523 31 30 31H2C1.44772 31 1 30.5523 1 30Z" stroke="currentColor" stroke-width="0.866667"/>
</svg>
