<svg width="21" height="21" viewBox="0 0 21 21" fill="none" xmlns="http://www.w3.org/2000/svg">
<g clip-path="url(#clip0_233_9)">
<path d="M17.8807 11.793C19.2142 11.793 20.2953 10.7125 20.2953 9.37911C20.2953 8.04569 19.2141 6.96448 17.8807 6.96448C16.5476 6.96448 15.4664 8.04569 15.4664 9.37911C15.4665 10.7125 16.5476 11.793 17.8807 11.793Z" fill="black"/>
<path d="M20.9724 14.1197C20.8648 13.4732 20.3304 12.5684 19.9259 12.1642C19.8726 12.1106 19.6345 12.0982 19.5702 12.1381C19.0784 12.4405 18.5007 12.6185 17.8808 12.6185C17.2615 12.6185 16.6838 12.4405 16.1919 12.1381C16.1273 12.0982 15.8895 12.1106 15.8362 12.1642C15.7232 12.2773 15.5998 12.4278 15.4795 12.6023C15.805 13.2151 16.0631 13.866 16.1562 14.4266C16.2493 14.9885 16.2191 15.5204 16.0685 16.0054C16.6033 16.1989 17.2446 16.2838 17.8807 16.2838C19.54 16.2838 21.238 15.7085 20.9724 14.1197Z" fill="black"/>
<path d="M10.438 10.7744C12.599 10.7744 14.351 9.02242 14.351 6.86147C14.351 4.70118 12.599 2.94916 10.438 2.94916C8.27737 2.94916 6.526 4.70118 6.526 6.86147C6.526 9.02242 8.27733 10.7744 10.438 10.7744Z" fill="black"/>
<path d="M13.7513 11.3738C13.6664 11.2892 13.2808 11.2676 13.176 11.3325C12.3783 11.8233 11.4422 12.1106 10.438 12.1106C9.43446 12.1106 8.49791 11.8233 7.70065 11.3325C7.59586 11.2676 7.21027 11.2892 7.12537 11.3738C6.46826 12.0302 5.60221 13.4976 5.42798 14.5438C4.99838 17.1206 7.75085 18.0509 10.438 18.0509C13.1258 18.0509 15.8782 17.1206 15.4486 14.5438C15.2744 13.4976 14.4083 12.0302 13.7513 11.3738Z" fill="black"/>
<path d="M3.11922 11.793C4.45231 11.793 5.53348 10.7125 5.53348 9.37911C5.53348 8.04569 4.45231 6.96448 3.11922 6.96448C1.78576 6.96448 0.70459 8.04569 0.70459 9.37911C0.70459 10.7125 1.78576 11.793 3.11922 11.793Z" fill="black"/>
<path d="M4.72067 14.4266C4.81968 13.8379 5.09904 13.1447 5.44927 12.5037C5.35166 12.3704 5.25408 12.2542 5.16401 12.1642C5.11073 12.1106 4.87292 12.0982 4.80832 12.1381C4.3165 12.4405 3.7388 12.6185 3.11922 12.6185C2.49955 12.6185 1.92148 12.4405 1.43007 12.1381C1.36576 12.0982 1.12729 12.1106 1.07401 12.1642C0.668492 12.5683 0.135494 13.4732 0.027541 14.1197C-0.237748 15.7085 1.45997 16.2837 3.11922 16.2837C3.71136 16.2837 4.30933 16.2109 4.81968 16.0442C4.65886 15.5494 4.62482 15.005 4.72067 14.4266Z" fill="black"/>
</g>
<defs>
<clipPath id="clip0_233_9">
<rect width="21" height="21" fill="white"/>
</clipPath>
</defs>
</svg>
